<?xml version="1.0" standalone="no"?>
<!DOCTYPE svg PUBLIC "-//W3C//DTD SVG 20010904//EN"
 "http://www.w3.org/TR/2001/REC-SVG-20010904/DTD/svg10.dtd">
<svg version="1.0" xmlns="http://www.w3.org/2000/svg"
 width="512.000000pt" height="512.000000pt" viewBox="0 0 512.000000 512.000000"
 preserveAspectRatio="xMidYMid meet">

<g transform="translate(0.000000,512.000000) scale(0.100000,-0.100000)"
fill="#9902c7" stroke="none">
<path d="M1711 4597 c-20 -25 -41 -106 -41 -162 0 -78 24 -146 71 -199 52 -59
78 -59 97 -1 41 121 18 235 -67 326 -41 45 -48 50 -60 36z"/>
<path d="M1342 4464 c-16 -11 -22 -25 -22 -54 0 -37 7 -47 123 -163 139 -139
282 -257 430 -354 111 -72 388 -217 432 -225 l28 -6 -6 58 c-3 31 -10 67 -17
79 -7 14 -54 43 -124 75 -130 61 -317 177 -443 275 -48 37 -148 127 -221 199
-73 73 -139 132 -145 132 -7 0 -23 -7 -35 -16z"/>
<path d="M1228 4196 c-51 -18 -88 -44 -88 -60 0 -20 94 -66 147 -73 60 -7 119
9 158 42 l30 25 -30 25 c-32 27 -112 55 -154 55 -14 -1 -43 -7 -63 -14z"/>
<path d="M3916 4170 c-45 -40 -68 -101 -64 -170 4 -67 24 -76 70 -33 41 38 68
98 68 155 0 86 -17 97 -74 48z"/>
<path d="M4114 4013 c-208 -143 -379 -228 -549 -273 -44 -12 -86 -23 -92 -25
-13 -4 36 -93 62 -115 12 -10 181 45 296 98 141 64 371 208 390 243 15 28 11
57 -11 79 -27 27 -50 25 -96 -7z"/>
<path d="M1412 3900 c-44 -32 -83 -91 -108 -162 -11 -33 -29 -57 -67 -87 -146
-119 -217 -268 -217 -456 1 -273 162 -628 406 -896 136 -150 285 -261 463
-349 112 -55 186 -82 330 -118 96 -24 124 -26 291 -26 175 0 191 2 305 32 128
34 267 95 363 161 238 161 401 438 443 750 38 284 -59 692 -223 933 -43 64
-107 108 -156 108 -37 0 -39 -6 -14 -33 16 -20 16 -20 -3 -12 -40 16 -81 17
-93 2 -10 -12 -6 -22 26 -55 62 -64 77 -131 77 -342 0 -186 -3 -206 -62 -365
-51 -140 -150 -269 -261 -338 -66 -43 -70 -31 -9 29 31 31 70 78 87 105 l30
49 -48 24 c-74 38 -149 56 -253 63 l-96 6 -32 -69 c-37 -79 -87 -148 -156
-216 -58 -57 -152 -124 -162 -114 -4 3 23 37 59 74 139 143 219 300 274 539
23 101 27 142 27 278 1 180 -16 285 -59 373 -27 56 -71 92 -112 92 -22 0 -22
-1 -7 -30 23 -44 19 -46 -25 -6 -65 58 -85 43 -49 -37 33 -72 31 -209 -5 -366
-28 -125 -63 -208 -124 -298 -60 -88 -107 -123 -83 -62 5 14 14 58 21 99 16
98 -4 224 -51 318 -85 174 -278 292 -476 292 -83 0 -88 7 -53 73 11 20 15 37
10 37 -27 0 -79 -31 -116 -69 -23 -22 -44 -41 -48 -41 -11 0 -6 57 9 99 18 51
6 54 -53 11z m497 -296 c68 -36 164 -134 148 -150 -2 -3 -28 4 -56 16 -61 24
-156 27 -206 6 -67 -28 -95 -117 -54 -170 32 -41 57 -49 164 -56 74 -5 111
-13 144 -29 41 -21 43 -24 38 -58 -10 -60 -45 -117 -110 -182 -131 -129 -347
-201 -517 -172 -76 14 -190 66 -190 87 0 30 43 97 87 138 124 111 123 110 123
163 0 60 -24 96 -75 113 -75 25 -175 -38 -237 -147 -17 -29 -35 -53 -40 -53
-19 0 -4 170 19 220 26 59 94 127 150 152 57 25 137 33 188 19 40 -11 40 -11
79 34 36 43 88 77 146 96 48 16 144 3 199 -27z m-39 -214 c0 -13 -7 -20 -19
-20 -22 0 -35 15 -26 30 12 19 45 11 45 -10z m-496 -156 c20 -8 21 -30 2 -37
-17 -7 -40 18 -31 33 7 12 8 12 29 4z"/>
<path d="M1595 3207 c-52 -29 -58 -60 -16 -81 70 -37 141 -5 144 66 2 32 1 33
-43 36 -32 1 -56 -4 -85 -21z"/>
<path d="M1792 3121 c-54 -68 -127 -90 -256 -79 -16 2 -31 -2 -33 -9 -7 -20
39 -36 107 -37 53 0 78 5 122 27 59 29 108 82 108 116 0 31 -13 26 -48 -18z"/>
<path d="M2842 3760 c-18 -11 -38 -32 -44 -46 -12 -25 -15 -26 -66 -20 l-54 6
6 -27 c3 -16 8 -45 12 -65 3 -21 12 -42 19 -48 21 -17 234 -41 341 -38 111 3
109 0 78 86 -11 30 -23 44 -40 48 -15 4 -32 21 -45 46 -38 74 -135 102 -207
58z m16 -106 c4 -96 -24 -113 -48 -29 -11 39 -10 48 4 70 26 40 41 26 44 -41z
m80 26 c5 -52 -15 -112 -36 -108 -21 4 -29 96 -12 128 17 32 44 21 48 -20z
m82 -19 c0 -34 -35 -91 -56 -91 -14 0 -16 8 -11 57 4 38 12 62 23 70 23 17 44
0 44 -36z"/>
<path d="M3873 3650 c-42 -13 -47 -23 -29 -59 24 -45 100 -106 157 -124 59
-19 151 -22 198 -6 36 13 37 16 14 49 -60 91 -141 139 -241 145 -37 3 -81 0
-99 -5z"/>
<path d="M2830 3290 c0 -96 -5 -204 -11 -239 -11 -68 -5 -81 35 -81 10 0 59
-16 109 -36 108 -43 101 -48 149 97 l32 97 -19 41 c-10 23 -32 96 -49 163
l-31 123 -108 5 -107 5 0 -175z"/>
<path d="M4285 1644 c-85 -31 -155 -132 -155 -224 0 -46 -15 -60 -62 -60 -32
0 -40 -4 -48 -26 -18 -46 5 -68 80 -76 l25 -3 0 -238 c0 -224 1 -240 20 -253
29 -21 71 -17 89 8 13 19 16 61 16 255 l0 233 65 0 c79 0 108 20 96 67 -7 27
-10 28 -82 33 l-74 5 0 58 c0 50 4 61 31 87 22 22 44 33 82 39 81 13 105 48
62 91 -24 24 -85 26 -145 4z"/>
<path d="M196 1629 c-14 -21 -16 -72 -16 -429 0 -453 0 -450 65 -450 56 0 65
23 65 177 0 99 3 133 13 134 6 1 44 0 82 -1 98 -2 202 17 252 46 85 49 133
140 133 250 0 114 -53 205 -151 259 -54 30 -55 30 -240 33 -185 4 -187 3 -203
-19z m372 -110 c129 -63 131 -257 3 -323 -21 -12 -188 -23 -248 -17 -10 1 -13
44 -13 181 l0 180 107 0 c88 0 114 -4 151 -21z"/>
<path d="M3804 1640 c-28 -11 -54 -48 -54 -78 0 -33 43 -72 78 -72 45 0 76 30
76 74 0 56 -52 95 -100 76z"/>
<path d="M1177 1389 c-46 -11 -89 -32 -106 -53 -20 -23 -41 -19 -41 7 0 30
-18 47 -50 47 -58 0 -60 -9 -60 -323 0 -313 1 -317 59 -317 57 0 61 17 61 231
0 219 7 247 70 284 29 16 53 20 133 20 76 0 100 3 107 15 12 18 12 41 2 56
-20 31 -112 48 -175 33z"/>
<path d="M1630 1381 c-83 -25 -141 -79 -184 -171 -74 -158 -12 -350 138 -427
100 -51 233 -50 338 3 60 30 75 56 53 90 -18 28 -59 32 -92 9 -75 -52 -180
-55 -253 -6 -44 29 -85 83 -96 125 l-6 26 231 0 c222 0 232 1 252 21 18 18 20
29 15 68 -16 120 -72 206 -160 247 -41 19 -67 24 -131 23 -44 0 -91 -4 -105
-8z m195 -114 c42 -24 85 -86 85 -124 l0 -23 -184 0 c-108 0 -187 4 -191 10
-16 25 63 128 115 149 46 18 132 13 175 -12z"/>
<path d="M2343 1374 c-63 -23 -128 -86 -165 -162 -30 -60 -33 -75 -32 -148 1
-65 6 -92 28 -140 35 -77 68 -110 141 -145 49 -24 73 -29 133 -29 78 0 122 16
180 65 18 15 35 24 40 21 12 -7 -5 -120 -23 -156 -19 -36 -68 -74 -119 -90
-77 -25 -183 7 -245 74 -32 34 -75 35 -97 1 -15 -23 -15 -27 3 -57 46 -79 176
-133 304 -126 102 6 175 41 230 110 60 77 71 130 72 347 0 167 -2 192 -21 245
-31 84 -83 143 -156 177 -53 25 -72 29 -146 28 -47 0 -103 -7 -127 -15z m240
-120 c73 -48 107 -142 87 -239 -43 -209 -337 -222 -396 -17 -48 164 60 303
221 286 29 -3 66 -15 88 -30z"/>
<path d="M2977 1372 c-15 -16 -17 -45 -17 -195 0 -202 9 -259 53 -324 77 -115
267 -145 389 -61 27 18 27 18 39 -4 16 -30 28 -38 60 -38 57 0 59 10 59 316 0
308 -3 324 -59 324 -55 0 -59 -16 -63 -237 -3 -230 -6 -239 -88 -280 -52 -27
-106 -29 -157 -8 -48 20 -71 41 -94 87 -17 33 -19 60 -19 221 0 165 -2 186
-18 200 -24 22 -65 21 -85 -1z"/>
<path d="M3790 1370 c-19 -19 -20 -33 -20 -304 0 -312 1 -316 60 -316 59 0 60
4 60 316 0 271 -1 285 -20 304 -11 11 -29 20 -40 20 -11 0 -29 -9 -40 -20z"/>
<path d="M4475 1370 c-12 -14 -15 -27 -10 -47 3 -15 62 -135 131 -268 68 -132
124 -248 124 -257 0 -9 -25 -72 -56 -138 -30 -67 -54 -132 -52 -143 4 -26 45
-48 75 -41 18 5 73 93 73 117 0 4 29 71 64 149 156 347 256 580 256 598 0 21
-35 50 -60 50 -36 0 -76 -77 -197 -377 -14 -35 -31 -63 -39 -63 -7 0 -57 88
-114 203 -56 111 -109 210 -117 220 -21 23 -56 22 -78 -3z"/>
</g>
</svg>
